<?xml version="1.0" encoding="UTF-8"?>
<svg version="1.1" xmlns="http://www.w3.org/2000/svg" width="3000" height="1000">
<path d="M0 0 C13.86 0 27.72 0 42 0 C42 9.9 42 19.8 42 30 C99.75 30 157.5 30 217 30 C217 20.1 217 10.2 217 0 C229.21 0 241.42 0 254 0 C254 9.9 254 19.8 254 30 C258.59000307 29.87974908 263.17979309 29.75694011 267.76953125 29.62768555 C269.32906099 29.58452692 270.88863219 29.54283944 272.44824219 29.50268555 C274.69739242 29.44451787 276.94633759 29.38096077 279.1953125 29.31640625 C279.8861795 29.29969376 280.57704651 29.28298126 281.28884888 29.26576233 C285.27939722 29.14521014 289.07398243 28.70143279 293 28 C313.73655015 26.29720253 333.6893617 30.63776153 349.92578125 44.203125 C350.61027344 44.79609375 351.29476562 45.3890625 352 46 C353.10408203 46.88945312 353.10408203 46.88945312 354.23046875 47.796875 C360.58200552 53.08800029 365.31617089 59.21866867 370 66 C370.81791016 67.15048828 370.81791016 67.15048828 371.65234375 68.32421875 C380.26985432 81.42192049 385.42035236 98.64305784 386.09887695 114.27844238 C386.5353281 122.68964136 389.08115383 130.21074282 391.8203125 138.09375 C392.3166211 139.55089241 392.81187124 141.00839571 393.30613708 142.4662323 C394.6248704 146.34565558 395.95871274 150.21971972 397.29576492 154.09286118 C398.69289012 158.14849557 400.07578244 162.20898118 401.46069336 166.26879883 C407.64761184 184.38451461 413.91424046 202.47270419 420.26611328 220.53125 C426.15605933 237.30481879 431.81997765 254.15453366 437.5 271 C443.74814355 289.53029706 450.00935145 308.05283263 456.5 326.5 C464.0650131 348.00507674 471.34778052 369.60521176 478.62133789 391.21020508 C479.59493193 394.10116959 480.56883486 396.99202985 481.54296875 399.8828125 C481.78022486 400.58702269 482.01748096 401.29123287 482.26192665 402.01678276 C485.24314567 410.86058324 488.26735193 419.68775666 491.36328125 428.4921875 C491.98685233 430.27432011 492.61038926 432.05646468 493.23388672 433.83862305 C494.32325647 436.94990992 495.42962593 440.05432735 496.54736328 443.15551758 C500.29861116 453.73813106 501.57084365 461.37481438 496.7890625 471.88671875 C479.30538427 502.31137279 435.52832883 514.34503827 404.375 522.8359375 C383.04715381 528.53334064 361.34551714 532.74725472 339.5 535.875 C338.82134888 535.97268677 338.14269775 536.07037354 337.44348145 536.17102051 C332.63720276 536.85226006 327.82148515 537.43720244 323 538 C322.27190927 538.0871651 321.54381854 538.1743302 320.79366446 538.26413667 C303.85288045 540.23234603 286.94097681 540.29549862 269.91398907 540.27610838 C265.78567733 540.27360709 261.65738682 540.28269682 257.52908325 540.29014587 C249.47146181 540.30280168 241.41387383 540.30469808 233.35624412 540.30234561 C226.79711097 540.30055204 220.23798785 540.30233417 213.6788559 540.30657005 C212.74016993 540.30716524 211.80148396 540.30776043 210.83435296 540.30837366 C208.92652172 540.30958559 207.01869048 540.31079972 205.11085925 540.31201603 C187.27703126 540.32285638 169.44322224 540.32074572 151.60939321 540.31463119 C135.35208552 540.30946483 119.0948378 540.32071636 102.83754197 540.33972941 C86.07863039 540.35917638 69.31974708 540.36735186 52.56082416 540.36360615 C43.17837978 540.36170452 33.7959864 540.36407945 24.41355133 540.37832069 C16.42623282 540.39032338 8.43899671 540.39154105 0.45167688 540.37953053 C-3.61038508 540.37370352 -7.67229698 540.37236724 -11.7343483 540.38453293 C-30.3398761 540.43648271 -48.55030673 539.69821136 -67 537 C-67.75785152 536.89044688 -68.51570304 536.78089376 -69.29651976 536.66802084 C-73.17120648 536.10084702 -77.02430851 535.46205524 -80.875 534.75 C-82.59614014 534.43421997 -82.59614014 534.43421997 -84.35205078 534.11206055 C-124.75759196 526.46620743 -169.43497545 514.81007739 -201 487 C-201.63164062 486.45085937 -202.26328125 485.90171875 -202.9140625 485.3359375 C-211.61196996 477.25109841 -217.36524329 466.9783016 -218.20858765 455.04963684 C-218.16351275 449.67811412 -216.51063876 444.63893285 -215.07275391 439.50268555 C-214.75988434 438.35772614 -214.44701477 437.21276672 -214.12466431 436.03311157 C-213.2640022 432.89030225 -212.39545815 429.74980068 -211.52343035 426.61013007 C-210.59965025 423.27660424 -209.68618416 419.94025378 -208.77157593 416.60420227 C-207.21161894 410.91954036 -205.64538984 405.23663893 -204.07470703 399.55493164 C-201.60991332 390.63867239 -199.15762375 381.7189992 -196.70703125 372.79882812 C-194.33590484 364.16947289 -191.96391408 355.54036257 -189.58462524 346.91325378 C-184.73597803 329.3313136 -179.92054226 311.74057835 -175.12835312 294.1431675 C-173.24888414 287.24160067 -171.36793404 280.34043763 -169.48632812 273.43945312 C-169.20702379 272.41506085 -169.20702379 272.41506085 -168.92207694 271.36997378 C-165.26498306 257.95868654 -161.59108229 244.55203266 -157.91323328 231.14642477 C-156.55228624 226.18555359 -155.19242184 221.22438644 -153.83312988 216.26306152 C-153.63267421 215.53141297 -153.43221854 214.79976441 -153.22568846 214.04594469 C-152.40999935 211.06864613 -151.59434723 208.09133743 -150.7787466 205.11401463 C-148.34731518 196.23827307 -145.91382906 187.3631014 -143.47682142 178.48888922 C-141.93484904 172.87318846 -140.39540438 167.25679847 -138.85781908 161.63989496 C-137.9555353 158.34414848 -137.05208078 155.04873397 -136.14561462 151.75413513 C-135.14532698 148.11625021 -134.14932065 144.47721826 -133.15429688 140.83789062 C-132.86244507 139.78047165 -132.57059326 138.72305267 -132.26989746 137.6335907 C-130.00854514 129.33478544 -128.07653249 121.11845834 -127.36865234 112.53466797 C-125.19488736 86.61940513 -112.73921744 62.94730253 -93 46 C-89.4731738 43.36811196 -85.85433515 41.11789169 -82 39 C-81.17886719 38.54109375 -80.35773438 38.0821875 -79.51171875 37.609375 C-60.79853503 27.70063976 -39.73348537 25.85714136 -19 29 C-15.69028499 29.2507307 -12.37795258 29.40854052 -9.0625 29.5625 C-4.5765625 29.7790625 -4.5765625 29.7790625 0 30 C0 20.1 0 10.2 0 0 Z M81 113 C80.29713867 113.22526367 79.59427734 113.45052734 78.87011719 113.68261719 C34.70108621 128.08977551 -2.10786027 161.90864475 -23 203 C-45.14188017 247.59675545 -47.71281344 297.82549078 -31.9375 344.875 C-23.38751037 369.09234601 -9.294992 390.22928793 8 409 C9.26457031 410.37285156 9.26457031 410.37285156 10.5546875 411.7734375 C25.39969385 427.20250967 43.66272786 439.04305886 63 448 C64.12792969 448.53367187 65.25585938 449.06734375 66.41796875 449.6171875 C81.19806225 456.30548303 96.96825366 460.63186744 113 463 C113.63341309 463.0942627 114.26682617 463.18852539 114.91943359 463.28564453 C142.28678315 466.86923516 169.91608078 463.49626947 196 455 C196.71494629 454.76941895 197.42989258 454.53883789 198.16650391 454.30126953 C243.73887928 439.2849592 279.44288012 404.1294191 301.02734375 362.09765625 C321.98792038 319.91979731 323.33164703 270.29455885 309 226 C308.65412842 224.92540527 308.65412842 224.92540527 308.30126953 223.82910156 C300.50143153 200.16336216 286.78845436 179.24022757 270 161 C269.24662354 160.17870605 269.24662354 160.17870605 268.47802734 159.34082031 C255.90398599 145.80695913 241.19460195 134.83840988 225 126 C224.37303223 125.65630371 223.74606445 125.31260742 223.10009766 124.95849609 C205.64275988 115.51886483 187.4644094 109.69804677 168 106 C167.31437988 105.86722656 166.62875977 105.73445313 165.92236328 105.59765625 C137.64492464 100.38846186 108.07203195 104.13945434 81 113 Z " fill="#C12E2E" transform="translate(274,286)"/>
<path d="M0 0 C1.66458252 0.61004883 1.66458252 0.61004883 3.36279297 1.23242188 C7.87413628 2.91291617 12.29818767 4.60512667 16.58984375 6.79296875 C27.4269113 12.21830119 38.09999736 12.56023617 50.00024414 13.06152344 C77.11305182 14.21291363 105.51836248 21.66724289 124.72265625 42.19482422 C142.88056009 62.63483519 149.83988339 88.936814 149.23828125 115.9453125 C148.34377597 127.93920007 142.23980624 137.5587291 136.12939453 147.64160156 C133.50851779 152.03532076 131.20129823 156.57106146 128.875 161.125 C127.70916499 163.32878624 126.53350629 165.52706665 125.35595703 167.72460938 C124.38466801 169.55174174 123.43929946 171.39258836 122.49609375 173.234375 C117.08902154 183.32088557 109.26506352 190.12416598 98.3125 193.6875 C82.66412493 197.99575516 70.1979669 194.56650194 56.05969238 187.44390869 C52.39251016 185.59681746 48.7062302 183.78836102 45.0234375 181.97265625 C43.9094458 181.42124969 43.9094458 181.42124969 42.77294922 180.85870361 C36.08961055 177.55655347 29.33960786 174.41798738 22.5625 171.3125 C12.04006819 166.45498265 1.5529167 161.52571656 -8.89196777 156.50360107 C-10.52579517 155.71986031 -12.16141639 154.93984627 -13.7989502 154.16387939 C-30.09573188 146.43335475 -43.21783655 138.22249464 -50.0252533 120.6656189 C-51.1645737 117.26248951 -51.75764781 113.78120976 -52.359375 110.25 C-52.49005371 109.51845703 -52.62073242 108.78691406 -52.75537109 108.03320312 C-53.07253329 106.25243926 -53.38094492 104.47012048 -53.6875 102.6875 C-102.33862062 94.8083822 -151.2489946 90.89491421 -200.46661377 88.78320312 C-202.54799193 88.69351173 -204.62922665 88.60103346 -206.71044922 88.5078125 C-288.20283125 84.94669397 -371.16558971 89.66839245 -451.6875 102.6875 C-451.65922119 103.65610962 -451.65922119 103.65610962 -451.63037109 104.64428711 C-451.43604156 116.15991339 -454.61944452 125.57879859 -461.6875 134.6875 C-462.80125 136.234375 -462.80125 136.234375 -463.9375 137.8125 C-472.25569641 146.50879625 -483.36732295 151.21730823 -494.0625 156.3125 C-495.72243766 157.11117475 -497.38210227 157.91041723 -499.04150391 158.71020508 C-509.77792051 163.87292985 -520.55996767 168.93588058 -531.38964844 173.90014648 C-537.62201111 176.76475873 -543.80552866 179.70892392 -549.953125 182.75 C-550.65132355 183.09392288 -551.34952209 183.43784576 -552.06887817 183.79219055 C-555.45717193 185.46129025 -558.83956747 187.14045368 -562.21240234 188.84057617 C-576.63824066 196.01704718 -589.18943334 197.71542685 -604.6875 192.6875 C-608.27707062 190.99505989 -611.50347894 189.05233118 -614.6875 186.6875 C-615.21287354 186.33631104 -615.73824707 185.98512207 -616.27954102 185.62329102 C-622.62226501 180.92317218 -625.47553082 174.18059384 -628.875 167.25 C-629.52403718 165.95683825 -630.17477465 164.66452858 -630.82714844 163.37304688 C-632.14891169 160.75335684 -633.46357331 158.13029649 -634.77294922 155.50439453 C-637.59298719 149.86342859 -640.51424079 144.27548029 -643.4375 138.6875 C-643.92629639 137.74592041 -644.41509277 136.80434082 -644.91870117 135.83422852 C-645.60089722 134.5240979 -645.60089722 134.5240979 -646.296875 133.1875 C-646.8842041 132.05828125 -646.8842041 132.05828125 -647.48339844 130.90625 C-648.68134399 128.61218956 -648.68134399 128.61218956 -650.30981445 126.29370117 C-651.9691926 123.15461528 -652.08897986 121.0269131 -652.12109375 117.48828125 C-652.13245361 116.28751953 -652.14381348 115.08675781 -652.15551758 113.84960938 C-652.14544678 112.57923828 -652.13537598 111.30886719 -652.125 110 C-652.11815186 108.69740234 -652.11130371 107.39480469 -652.10424805 106.05273438 C-651.6855398 80.74832875 -643.13458435 57.57225174 -625.34375 39.27734375 C-605.77290632 20.75493813 -577.13338008 12.28743701 -550.453125 12.734375 C-534.87488245 12.87130251 -523.29153031 8.4719563 -509.17431641 2.18505859 C-503.43695635 -0.27908975 -497.57632852 -2.36725672 -491.6875 -4.4375 C-490.52065674 -4.84798584 -489.35381348 -5.25847168 -488.15161133 -5.68139648 C-484.6662574 -6.89964169 -481.17714404 -8.10660765 -477.6875 -9.3125 C-476.60597656 -9.69116211 -475.52445313 -10.06982422 -474.41015625 -10.45996094 C-417.13005535 -30.47328104 -356.29104722 -44.28907347 -295.6875 -48.3125 C-294.84316406 -48.37034668 -293.99882812 -48.42819336 -293.12890625 -48.48779297 C-213.86635898 -53.63253073 -135.38242929 -42.52042042 0 0 Z " fill="#C12E2E" transform="translate(651.6875,164.3125)"/>
<path d="M0 0 C18.48 0 36.96 0 56 0 C59.02311225 15.11556124 62.01162364 30.20901131 64.73291016 45.37695312 C65.0734004 47.26440022 65.41410054 49.15180947 65.75498962 51.03918457 C66.66402163 56.07549279 67.57016207 61.11231707 68.47569323 66.14925575 C69.43215925 71.46663145 70.39134003 76.78351749 71.35018921 82.10046387 C72.95702342 91.01265921 74.56215132 99.92516035 76.16601562 108.83789062 C78.41923105 121.35907684 80.67552938 133.87970605 82.93245625 146.40022373 C85.96611349 163.23070312 88.99891664 180.06133747 92.02809334 196.8926239 C92.35247493 198.69481154 92.67695095 200.49698219 93.00153542 202.2991333 C95.02397299 213.52875944 97.02473274 224.76197787 99 236 C100.42928732 233.27655006 101.5368426 230.60744567 102.47363281 227.67941284 C102.749039 226.82061523 103.02444519 225.96181763 103.30819702 225.07699585 C103.60352325 224.14134796 103.89884949 223.20570007 104.203125 222.24169922 C104.51851227 221.24853699 104.83389954 220.25537476 105.15884399 219.2321167 C108.09106095 209.93280008 110.87990103 200.59175057 113.62417603 191.23542595 C115.46192651 184.98206427 117.34359889 178.75126648 119.34863281 172.54931641 C130.77122342 137.06379613 132.3759783 112.62606363 119.07458496 77.6338501 C116.1897682 69.97276909 114.04685145 62.12740199 111.9036026 54.23376083 C110.85910789 50.41872369 109.75822889 46.62020402 108.66015625 42.8203125 C108.23954624 41.35715379 107.81913558 39.89393776 107.39892578 38.43066406 C106.52506291 35.39081054 105.65056084 32.35114138 104.77587891 29.31152344 C103.68121477 25.50683571 102.58907199 21.70143168 101.49850082 17.89556885 C100.89774292 15.80202996 100.29402344 13.70936023 99.69021606 11.61669922 C99.15737503 9.75682373 99.15737503 9.75682373 98.61376953 7.859375 C98.14416306 6.22693848 98.14416306 6.22693848 97.66506958 4.56152344 C97 2 97 2 97 0 C114.16 0 131.32 0 149 0 C154.94 27.72 160.88 55.44 167 84 C172.8816963 57.10439602 172.8816963 57.10439602 178.75756836 30.20751953 C179.89562988 25.01147461 179.89562988 25.01147461 180.4287262 22.58078003 C180.80133359 20.8794166 181.17287925 19.17782045 181.54359436 17.4760437 C182.10462347 14.90160978 182.66899452 12.32792949 183.23413086 9.75439453 C183.48167948 8.61288028 183.48167948 8.61288028 183.73422909 7.44830513 C184.88597366 2.22805267 184.88597366 2.22805267 186 0 C202.83 0 219.66 0 237 0 C234.75036433 11.24817837 234.75036433 11.24817837 233.57588196 15.27331543 C233.31084869 16.18975327 233.04581543 17.1061911 232.77275085 18.05039978 C232.48849747 19.01796707 232.20424408 19.98553436 231.91137695 20.98242188 C231.60711792 22.0309584 231.30285889 23.07949493 230.98937988 24.1598053 C230.33348574 26.41966936 229.675942 28.67905518 229.01690102 30.93800354 C227.97369045 34.51883306 226.93794545 38.10174053 225.90458679 41.6854248 C222.96818098 51.86883565 220.02935959 62.05144266 217.05932617 72.22509766 C215.23905659 78.46326419 213.43630919 84.70626498 211.64488792 90.95277405 C210.96119129 93.32440659 210.27103858 95.69418816 209.57421303 98.06199646 C208.59970925 101.37599194 207.64770734 104.6957116 206.70043945 108.01757812 C206.41011337 108.98514542 206.11978729 109.95271271 205.82066345 110.94960022 C203.05075823 120.84322938 204.75509133 129.08476572 207.48095703 138.79467773 C207.85932961 140.18021851 207.85932961 140.18021851 208.24534607 141.59375 C209.07531216 144.62582042 209.91656019 147.65463728 210.7578125 150.68359375 C211.34572063 152.8240152 211.9328543 154.96464951 212.51925659 157.10548401 C214.06478405 162.7407631 215.61962445 168.3734284 217.17681885 174.00549316 C219.64517428 182.93987527 222.09886713 191.87830545 224.55431366 200.81624222 C225.14671046 202.97197866 225.73946669 205.12761637 226.3325882 207.28315353 C230.69945991 223.15467742 234.93797706 239.04721852 239 255 C221.51 255 204.02 255 186 255 C181.80977362 237.30793305 177.75155077 219.59130831 173.8175354 201.84051514 C173.31444994 199.57306192 172.80954842 197.30601087 172.30282593 195.03936768 C171.58330262 191.81775783 170.8708017 188.59467201 170.16015625 185.37109375 C169.94173065 184.39827957 169.72330505 183.42546539 169.4982605 182.423172 C169.30039948 181.51838608 169.10253845 180.61360016 168.89868164 179.68139648 C168.72438126 178.89474106 168.55008087 178.10808563 168.37049866 177.29759216 C167.97252079 174.82959181 167.93649794 172.49566037 168 170 C167.34 170 166.68 170 166 170 C165.86271484 171.70168335 165.86271484 171.70168335 165.72265625 173.43774414 C164.87047121 181.05488893 163.07035541 188.5166271 161.4375 195.99609375 C161.08228392 197.63746907 160.7273901 199.27891416 160.37280273 200.92042542 C159.63254626 204.34267149 158.88923433 207.76423432 158.14355469 211.18530273 C157.18694135 215.57474054 156.236796 219.96554757 155.28874207 224.35684109 C154.55823904 227.73809801 153.82499888 231.11875651 153.09085083 234.49922371 C152.73928956 236.11903801 152.38843634 237.73900614 152.03829956 239.35912895 C151.55035983 241.61428271 151.05889747 243.86863921 150.56640625 246.12280273 C150.28740479 247.40581772 150.00840332 248.6888327 149.72094727 250.01072693 C149 253 149 253 148 255 C135.2396613 255.02312121 122.47932755 255.04091395 109.71897221 255.05181217 C103.79449285 255.05704149 97.87002778 255.06414001 91.94555664 255.07543945 C86.23327429 255.08626661 80.52100572 255.09227647 74.80871391 255.09487724 C72.62411723 255.0967318 70.43952135 255.100353 68.2549305 255.10573006 C65.20647651 255.11293821 62.15808021 255.11399104 59.10961914 255.11352539 C58.19684204 255.11712067 57.28406494 255.12071594 56.34362793 255.12442017 C50.11405216 255.11405216 50.11405216 255.11405216 49 254 C48.62961642 251.9688157 48.31626165 249.92717551 48.02734375 247.8828125 C47.85009766 246.63628906 47.67285156 245.38976562 47.49023438 244.10546875 C47.39959717 243.45239746 47.30895996 242.79932617 47.21557617 242.12646484 C46.93953219 240.1396268 46.6563155 238.15378964 46.37304688 236.16796875 C45 226.42084478 45 226.42084478 45 223 C33.78 223 22.56 223 11 223 C10.505 229.435 10.505 229.435 10 236 C8.515 245.405 8.515 245.405 7 255 C-10.16 255 -27.32 255 -45 255 C-43.87500067 242.62500736 -43.87500067 242.62500736 -42.87973022 237.12353516 C-42.65605113 235.87384162 -42.43237204 234.62414808 -42.20191479 233.33658504 C-41.95549863 231.98739479 -41.7089914 230.63822117 -41.46240234 229.2890625 C-41.20021349 227.83455665 -40.93844535 226.37997492 -40.67706013 224.92532444 C-39.96746307 220.98311948 -39.25200608 217.04199848 -38.53548598 213.1010468 C-37.77351937 208.904247 -37.01706286 204.70645394 -36.25996399 200.5087738 C-34.804752 192.44521099 -33.34463498 184.38254427 -31.88281077 176.32017785 C-30.21042583 167.0951887 -28.54338714 157.86923608 -26.87678754 148.64320028 C-24.10144343 133.2799077 -21.32251244 117.91726712 -18.54052734 102.55517578 C-15.60188344 86.32797038 -12.66793521 70.09992497 -9.73828125 53.87109375 C-9.02493153 49.9199166 -8.31154681 45.96874578 -7.59814453 42.01757812 C-7.43514736 41.11479315 -7.27215019 40.21200817 -7.10421371 39.28186607 C-4.73977418 26.18725349 -2.36986943 13.0936309 0 0 Z M28 97 C26.56345473 107.63934778 25.12903186 118.27897933 23.69733429 128.9189806 C23.03250689 133.85929645 22.36694278 138.79951074 21.69970703 143.73950195 C21.05607826 148.50491779 20.41436897 153.27058849 19.77400208 158.03644371 C19.52908485 159.85663797 19.2834706 161.67673858 19.03715515 163.49674416 C18.6928583 166.04161335 18.35101856 168.58680119 18.00976562 171.13208008 C17.9069075 171.88805481 17.80404938 172.64402954 17.69807434 173.4229126 C17.31319402 176.30916952 17 179.08420881 17 182 C24.26 182 31.52 182 39 182 C38.38651071 171.32754808 37.33144223 160.81748507 35.93359375 150.22265625 C35.73283684 148.67472986 35.53249188 147.12675 35.33253479 145.57872009 C34.8121941 141.55883786 34.28636619 137.53969313 33.75927734 133.52069092 C33.21957752 129.39769958 32.68522887 125.27401492 32.15039062 121.15039062 C31.10541081 113.09958375 30.05461623 105.04955021 29 97 C28.67 97 28.34 97 28 97 Z " fill="#006464" transform="translate(2697,326)"/>
<path d="M0 0 C1.82263302 -0.00202483 3.64526524 -0.00493966 5.46789551 -0.00869751 C9.27376069 -0.01310162 13.07941355 -0.0067518 16.88525391 0.00732422 C21.74033768 0.02441493 26.59492376 0.01456344 31.44998932 -0.00339317 C35.20944911 -0.01428293 38.96879275 -0.01076096 42.72825623 -0.0030098 C44.51745158 -0.00102211 46.30665781 -0.00341618 48.09584045 -0.01044846 C70.92960057 -0.08052056 70.92960057 -0.08052056 79.62109375 6.76171875 C87.55460808 14.88920654 89.53570575 24.96056405 89.47944641 35.91682434 C89.48327196 36.72459074 89.48709751 37.53235714 89.49103898 38.36460131 C89.50127733 41.04497482 89.49739441 43.72513043 89.4934082 46.40551758 C89.49775979 48.33809099 89.50294443 50.27066267 89.50889587 52.20323181 C89.5222499 57.43476225 89.52286848 62.66622029 89.52033257 67.89776444 C89.51926029 72.27375385 89.52415288 76.64972876 89.528938 81.02571505 C89.54002103 91.35480095 89.54047754 101.68385049 89.53442383 112.01293945 C89.52838618 122.64830122 89.54069257 133.28353061 89.5619939 143.91886979 C89.57964128 153.06821622 89.58560626 162.21752064 89.58235615 171.36688346 C89.58054795 176.82328276 89.58313306 182.27958765 89.59707069 187.73597145 C89.60969528 192.87015042 89.60766125 198.00412393 89.59465981 203.13829994 C89.59230444 205.01512218 89.59499114 206.89195909 89.60328293 208.7687645 C89.71445447 235.90318519 89.71445447 235.90318519 80.21875 246.3984375 C69.68158145 255.93206619 55.91834678 255.85789908 42.5 255.796875 C40.90921903 255.79890224 39.31843897 255.80181904 37.72766113 255.80557251 C34.41291349 255.80996538 31.09841035 255.80366389 27.78369141 255.78955078 C23.5678078 255.7724606 19.35249748 255.78231826 15.13663483 255.80026817 C11.85748089 255.81118888 8.57845941 255.80762204 5.29930115 255.7998848 C3.74621002 255.79790559 2.19310624 255.80026036 0.64002991 255.80732346 C-12.07022572 255.85246392 -24.88212943 255.37442579 -34.78125 246.3984375 C-44.82229999 235.10225627 -44.21919545 221.14399547 -44.16943359 206.94897461 C-44.17350445 204.993156 -44.17884921 203.0373397 -44.18536377 201.08152771 C-44.19898107 195.79649433 -44.19376209 190.51163763 -44.18422651 185.22660136 C-44.17660197 179.6819518 -44.18368317 174.13731681 -44.18838501 168.59266663 C-44.19383398 159.28465067 -44.18667302 149.97670626 -44.17236328 140.66870117 C-44.15603366 129.92305201 -44.16133106 119.17757361 -44.1778425 108.43192858 C-44.19147611 99.18745083 -44.193368 89.94302435 -44.18552649 80.69853979 C-44.18086091 75.18523299 -44.18019451 69.67200634 -44.19013596 64.15870476 C-44.1988308 58.9752475 -44.19273774 53.79200951 -44.17545319 48.60857582 C-44.17150199 46.71156553 -44.17259884 44.81453665 -44.17924118 42.91753387 C-44.21910334 30.37229582 -44.13936067 18.6012538 -35.78125 8.3984375 C-26.1293231 -1.08069275 -12.51821078 -0.04920211 0 0 Z M9.59045792 46.52273464 C7.57995463 49.27194001 7.84700646 51.39896353 7.85125732 54.78199768 C7.84798848 55.43243465 7.84471964 56.08287162 7.84135175 56.7530188 C7.83405794 58.93657463 7.84823982 61.11946346 7.86230469 63.30297852 C7.861514 64.86665969 7.85941732 66.43034068 7.85610962 67.99401855 C7.85096913 72.24393313 7.86452339 76.49360616 7.88163662 80.74348187 C7.89665304 85.18550361 7.89549811 89.62752195 7.89630127 94.06956482 C7.8999955 101.52875909 7.91497132 108.98786143 7.9375 116.44702148 C7.96638428 126.03020412 7.97672391 135.61331272 7.9811821 145.19653416 C7.98515843 153.42494006 7.99766041 161.65332978 8.01152897 169.88172412 C8.01563219 172.53198952 8.01855566 175.18225434 8.02132416 177.83252144 C8.02620964 181.99146101 8.03640032 186.15035546 8.05076218 190.30927277 C8.05529307 191.83874797 8.0581257 193.36822924 8.05916977 194.8977108 C8.06090981 196.97913983 8.06877762 199.06045517 8.07830811 201.14186096 C8.08128277 202.3086416 8.08425743 203.47542223 8.08732224 204.67755985 C8.03369197 207.36460409 8.03369197 207.36460409 9.21875 209.3984375 C13.53123609 209.42730287 17.84369762 209.44519005 22.15625 209.4609375 C23.38794922 209.46931641 24.61964844 209.47769531 25.88867188 209.48632812 C27.05849609 209.48955078 28.22832031 209.49277344 29.43359375 209.49609375 C30.51761475 209.50133057 31.60163574 209.50656738 32.71850586 209.51196289 C35.15924948 209.68270647 35.15924948 209.68270647 36.21875 208.3984375 C36.31997201 206.32743762 36.34952734 204.2529286 36.35246277 202.17945862 C36.35472833 201.52256339 36.35699388 200.86566817 36.35932809 200.18886703 C36.36569505 197.97167835 36.36483701 195.75455037 36.36401367 193.53735352 C36.36700349 191.95426351 36.3704056 190.37117424 36.37419128 188.78808594 C36.38305355 184.47616103 36.38537033 180.16425595 36.38600707 175.85232282 C36.38695431 172.25867436 36.39063046 168.66503056 36.39417917 165.07138389 C36.40233217 156.59633362 36.40476263 148.12129398 36.40405273 139.64624023 C36.4034517 130.88993952 36.41400677 122.13370037 36.4297964 113.37741524 C36.44285104 105.87169051 36.44823751 98.36598594 36.44759732 90.86024994 C36.44734173 86.37210329 36.45022679 81.88401132 36.46077538 77.39587593 C36.47042155 73.17621337 36.47055963 68.95665812 36.46325874 64.73699188 C36.46220855 63.18493685 36.46460137 61.63287525 36.4706192 60.08083153 C36.47828115 57.96855945 36.47373338 55.85666339 36.46598816 53.74440002 C36.46653293 52.56027307 36.46707769 51.37614611 36.46763897 50.15613651 C36.50269573 47.25526014 36.50269573 47.25526014 34.21875 45.3984375 C30.42528509 44.94360983 26.59883871 45.074404 22.78125 45.0859375 C21.71841797 45.06982422 20.65558594 45.05371094 19.56054688 45.03710938 C18.54154297 45.03646484 17.52253906 45.03582031 16.47265625 45.03515625 C15.53752197 45.03217529 14.6023877 45.02919434 13.63891602 45.02612305 C11.22862512 45.21669962 11.22862512 45.21669962 9.59045792 46.52273464 Z " fill="#006464" transform="translate(1195.78125,325.6015625)"/>
<path d="M0 0 C114.84438776 0 114.84438776 0 123.5 8.15625 C128.59216373 14.41536792 131.10778005 21.48328037 131.15390015 29.46292114 C131.16250061 30.57305069 131.17110107 31.68318024 131.17996216 32.82695007 C131.18635208 34.64728508 131.18635208 34.64728508 131.19287109 36.50439453 C131.20513733 38.42701363 131.20513733 38.42701363 131.21765137 40.38847351 C131.24381519 44.63656527 131.25917573 48.88466659 131.2734375 53.1328125 C131.27879995 54.59865194 131.28417746 56.06449133 131.28956985 57.53033066 C131.31119242 63.63139303 131.32992607 69.73245281 131.34119225 75.83354378 C131.35741226 84.55814552 131.39054924 93.28230061 131.44759309 102.00673401 C131.48638942 108.15129371 131.50583648 114.29573445 131.51111281 120.44041336 C131.51475375 124.10511326 131.52663904 127.76933618 131.55921555 131.43390274 C131.5951004 135.52928124 131.59090087 139.62370907 131.58349609 143.71923828 C131.59990143 144.92064957 131.61630676 146.12206085 131.63320923 147.35987854 C131.57259987 155.57167624 130.03748454 162.27414638 124.59261131 168.64734077 C120.04280023 172.84078347 115.03421359 174 109 174 C109.32572998 174.94166016 109.65145996 175.88332031 109.98706055 176.85351562 C116.26933175 195.0344484 122.47283833 213.23984609 128.44326782 231.52587891 C129.02232976 233.29898798 129.60287404 235.07161364 130.18490601 236.84375 C130.99908196 239.3253151 131.80718088 241.80877043 132.61328125 244.29296875 C132.85640045 245.03189865 133.09951965 245.77082855 133.3500061 246.53215027 C134.29764953 249.47460862 135 251.88733519 135 255 C117.18 255 99.36 255 81 255 C76.45879148 239.9591965 76.45879148 239.9591965 74.49023438 233.43554688 C73.15878996 229.02325258 71.82722896 224.61099376 70.49487305 220.19897461 C61.04738216 188.91312361 61.04738216 188.91312361 57 175 C55.02 174.67 53.04 174.34 51 174 C51 200.73 51 227.46 51 255 C34.17 255 17.34 255 0 255 C0 170.85 0 86.7 0 0 Z M51 45 C51 73.71 51 102.42 51 132 C59.91 132 68.82 132 78 132 C80.51450475 129.48549525 80.24734944 127.93734069 80.28216553 124.50608826 C80.27968811 123.7403096 80.27721069 122.97453094 80.2746582 122.18554688 C80.27976913 121.37892105 80.28488007 120.57229523 80.29014587 119.7412262 C80.30408004 117.06699262 80.30308242 114.39301562 80.30078125 111.71875 C80.30466576 109.86551822 80.30899992 108.01228734 80.31376648 106.15905762 C80.32123669 102.27186193 80.3209314 98.38475706 80.31567383 94.49755859 C80.30987472 89.50696409 80.32681693 84.51674017 80.3500185 79.52620697 C80.3647223 75.69844374 80.3656322 71.87077048 80.36250877 68.04298401 C80.36302357 66.20251226 80.36829074 64.36203568 80.37832069 62.52159119 C80.39060465 59.95229726 80.38394263 57.38373462 80.37231445 54.81445312 C80.37995819 54.04867447 80.38760193 53.28289581 80.39547729 52.49391174 C80.40736201 50.16214441 80.40736201 50.16214441 80 47 C71.93774225 41.6251615 60.6896279 45 51 45 Z " fill="#006464" transform="translate(1000,326)"/>
<path d="M0 0 C114 0 114 0 121.8125 6.25 C130.31516084 16.93905934 131.30533579 26.51445489 131.25878906 39.98608398 C131.26404602 41.87834717 131.26404602 41.87834717 131.26940918 43.80883789 C131.27845661 47.24073288 131.27502058 50.67250639 131.26865101 54.10440326 C131.26354998 57.71471124 131.26829388 61.32500955 131.27142334 64.93531799 C131.27505158 70.99669236 131.27029447 77.05801784 131.26074219 83.11938477 C131.24986475 90.10172812 131.25338265 97.08395458 131.264395 104.06629509 C131.27350644 110.08701108 131.27473424 116.10769212 131.26951766 122.12841278 C131.26641844 125.71294667 131.2659316 129.29742585 131.27259064 132.8819561 C131.27950532 136.88288023 131.26988872 140.88360676 131.25878906 144.88452148 C131.26283752 146.05420975 131.26688599 147.22389801 131.27105713 148.42903137 C131.20764087 160.8311001 130.09037986 171.20473369 121 180.25 C112.50296833 186.83738641 101.48331965 187.58706232 91.13671875 187.390625 C90.10792603 187.38659668 89.0791333 187.38256836 88.01916504 187.37841797 C84.24175723 187.35777258 80.46460724 187.30193163 76.6875 187.25 C63.9721875 187.12625 63.9721875 187.12625 51 187 C51 209.44 51 231.88 51 255 C34.17 255 17.34 255 0 255 C0 170.85 0 86.7 0 0 Z M51 45 C51 77.67 51 110.34 51 144 C60.24 144 69.48 144 79 144 C80.89526465 142.10473535 80.13329195 139.32822398 80.14663696 136.80551147 C80.14595718 135.46911118 80.14595718 135.46911118 80.14526367 134.10571289 C80.14862228 133.17243668 80.1519809 132.23916046 80.15544128 131.27760315 C80.16498212 128.17594084 80.16689595 125.07433234 80.16796875 121.97265625 C80.17117911 119.82653277 80.17454301 117.68040951 80.17805481 115.5342865 C80.1840539 111.02911878 80.18589391 106.52397026 80.18530273 102.01879883 C80.18520106 96.2334779 80.19885555 90.44827956 80.21607494 84.66298771 C80.22716944 80.22874888 80.22922273 75.79453992 80.22869301 71.36028862 C80.2298769 69.22675593 80.23432138 67.09322256 80.24202538 64.95970345 C80.25177412 61.98094108 80.24896758 59.00244793 80.24291992 56.02368164 C80.24853943 55.13477234 80.25415894 54.24586304 80.25994873 53.33001709 C80.45794984 48.68427284 80.45794984 48.68427284 78 45 C69.09 45 60.18 45 51 45 Z " fill="#006464" transform="translate(1911,326)"/>
<path d="M0 0 C0.97484848 0.00222061 1.94969696 0.00444122 2.9540863 0.00672913 C4.05515213 0.00680466 5.15621796 0.00688019 6.29064941 0.00695801 C7.48854599 0.01211929 8.68644257 0.01728058 9.92063904 0.02259827 C11.14000656 0.02401321 12.35937408 0.02542816 13.61569214 0.02688599 C17.52856349 0.03250485 21.4413786 0.04506055 25.35423279 0.05775452 C27.99941426 0.06276709 30.64459662 0.06733041 33.28977966 0.07142639 C39.79045068 0.08248041 46.29108594 0.09963285 52.79173279 0.12025452 C55.35091919 10.58237005 57.32193502 21.10866901 59.21824646 31.70643616 C59.55025815 33.54831802 59.88255185 35.39014908 60.21510315 37.23193359 C61.11289023 42.20866003 62.00678333 47.18607873 62.89998031 52.16363072 C63.84546577 57.42851985 64.79466818 62.69273882 65.74346924 67.95703125 C67.54611339 77.96186323 69.34558424 87.96726313 71.14384586 97.97288364 C73.556208 111.3945823 75.97294667 124.81549261 78.38962424 138.23641479 C78.98024343 141.51641257 79.57084672 144.79641321 80.16143799 148.07641602 C80.35397465 149.14570373 80.5465113 150.21499143 80.7448824 151.3166818 C81.86181807 157.52035642 82.97801053 163.72416411 84.09341818 169.92811364 C84.79620579 173.83690775 85.49930431 177.74564591 86.20241129 181.65438259 C86.54389577 183.55331189 86.88522308 185.45226946 87.22638643 187.35125649 C89.160953 198.11914457 91.1117096 208.88382084 93.08924866 219.64390564 C93.46557762 221.69606536 93.84185407 223.7482347 94.21807575 225.80041409 C94.93198568 229.69440555 95.6504457 233.58752031 96.37145519 237.48020267 C96.69270042 239.23062485 97.01377677 240.98107803 97.33465576 242.73156738 C97.48316486 243.52628618 97.63167397 244.32100497 97.78468335 245.13980615 C98.40590098 248.54842461 98.79173279 251.64131072 98.79173279 255.12025452 C81.63173279 255.12025452 64.47173279 255.12025452 46.79173279 255.12025452 C44.54173279 244.99525452 44.54173279 244.99525452 43.94017029 240.21009827 C43.823349 239.29865051 43.70652771 238.38720276 43.58616638 237.44813538 C43.4477533 236.32930969 43.30934021 235.21048401 43.16673279 234.05775452 C42.71298279 230.44837952 42.25923279 226.83900452 41.79173279 223.12025452 C30.57173279 223.12025452 19.35173279 223.12025452 7.79173279 223.12025452 C7.46173279 227.74025452 7.13173279 232.36025452 6.79173279 237.12025452 C5.80173279 243.06025452 4.81173279 249.00025452 3.79173279 255.12025452 C-13.36826721 255.12025452 -30.52826721 255.12025452 -48.20826721 255.12025452 C-47.0832723 242.74531054 -47.0832723 242.74531054 -46.08799744 237.28175354 C-45.86431866 236.04047479 -45.64063988 234.79919603 -45.41018295 233.52030277 C-45.16376684 232.18055689 -44.91725928 230.84082783 -44.67066956 229.50111389 C-44.4084711 228.05645614 -44.14670032 226.61172071 -43.88531876 225.16691494 C-43.17575455 221.25155422 -42.46027089 217.33729613 -41.74374056 213.42320514 C-40.98172158 209.25455527 -40.22536281 205.0848784 -39.46836853 200.91531372 C-38.0132036 192.90494397 -36.5531525 184.8954729 -35.0913285 176.886316 C-33.25170797 166.80607401 -31.41790135 156.72477597 -29.58424377 146.64344788 C-28.92143537 142.99968875 -28.25858732 139.35593684 -27.59571838 135.71218872 C-27.43252342 134.81508964 -27.26932845 133.91799055 -27.10118818 132.99370664 C-25.95383627 126.68710684 -24.80547892 120.38069058 -23.65675354 114.07434082 C-20.07663164 94.41773636 -16.51196717 74.75854133 -12.98170471 55.09291077 C-12.61681519 53.06205219 -12.25189703 51.03119877 -11.88694763 49.00035095 C-10.45197007 41.01285669 -9.01883467 33.02504943 -7.59337044 25.03585148 C-7.04558077 21.97015607 -6.49473057 18.90501704 -5.94293594 15.84004021 C-5.69693069 14.46946752 -5.45232989 13.09864184 -5.20928574 11.72754097 C-4.88924887 9.92234795 -4.56407657 8.1180675 -4.23854065 6.31385803 C-4.06175781 5.32418533 -3.88497498 4.33451263 -3.70283508 3.31484985 C-3.04922444 0.41451817 -2.98941711 0.16279321 0 0 Z M24.79173279 97.12025452 C23.3559833 107.90736648 21.9216273 118.69466272 20.48906708 129.48219872 C19.82388141 134.49087449 19.15820963 139.49948467 18.49143982 144.50794983 C17.84840275 149.33828068 17.20662573 154.1687774 16.56573486 158.99939346 C16.32057896 160.84550102 16.07496335 162.69154759 15.82888794 164.53753281 C15.48522007 167.11621796 15.14316386 169.695112 14.80149841 172.27406311 C14.69864029 173.04298386 14.59578217 173.8119046 14.48980713 174.60412598 C13.97487669 178.34945658 13.97487669 178.34945658 13.79173279 182.12025452 C21.05173279 182.12025452 28.31173279 182.12025452 35.79173279 182.12025452 C35.20669337 171.14200336 34.18965015 160.35527665 32.72532654 149.46400452 C32.52450028 147.93993757 32.32415701 146.41580692 32.12426758 144.89161682 C31.60462522 140.93904842 31.07856345 136.98736211 30.55101013 133.0358429 C30.01071959 128.97987193 29.4767115 124.92307405 28.94212341 120.86634827 C27.8980284 112.95017626 26.84712834 105.03492782 25.79173279 97.12025452 C25.46173279 97.12025452 25.13173279 97.12025452 24.79173279 97.12025452 Z " fill="#006464" transform="translate(2225.208267211914,325.87974548339844)"/>
<path d="M0 0 C0.97484848 0.00222061 1.94969696 0.00444122 2.9540863 0.00672913 C4.05515213 0.00680466 5.15621796 0.00688019 6.29064941 0.00695801 C7.48854599 0.01211929 8.68644257 0.01728058 9.92063904 0.02259827 C11.14000656 0.02401321 12.35937408 0.02542816 13.61569214 0.02688599 C17.52856349 0.03250485 21.4413786 0.04506055 25.35423279 0.05775452 C27.99941426 0.06276709 30.64459662 0.06733041 33.28977966 0.07142639 C39.79045068 0.08248041 46.29108594 0.09963285 52.79173279 0.12025452 C55.45841462 10.96785643 57.46483742 21.89991169 59.43357849 32.89076233 C59.78854021 34.85886478 60.14378295 36.82691656 60.49928284 38.79492188 C61.45891595 44.11180765 62.41466014 49.42938579 63.36970162 54.74709797 C64.37753843 60.35479176 65.38905644 65.9618215 66.400177 71.56892395 C68.31853885 82.2101803 70.23371521 92.85200731 72.14769477 103.49405265 C74.51533104 116.65768971 76.88685891 129.8206251 79.25852966 142.98353577 C80.09776851 147.64146884 80.93697953 152.29940693 81.77615356 156.95735168 C82.08247932 158.65764751 82.08247932 158.65764751 82.39499348 160.39229274 C83.58925863 167.02174878 84.78286331 173.65132329 85.97576565 180.28102469 C86.54056166 183.41993021 87.10549377 186.55881121 87.67044353 189.69768906 C88.38649919 193.67619811 89.10197874 197.65481018 89.81709766 201.6334877 C91.41449167 210.51518504 93.02154343 219.39487334 94.657547 228.26954651 C94.94452006 229.83039213 95.23146595 231.39124275 95.51838207 232.95209885 C96.04004817 235.78933526 96.566248 238.62567548 97.09533405 241.46153641 C97.43457543 243.30447596 97.43457543 243.30447596 97.78067017 245.18464661 C97.97746463 246.24319729 98.17425909 247.30174797 98.37701702 248.39237595 C98.79173279 251.12025452 98.79173279 251.12025452 98.79173279 255.12025452 C81.63173279 255.12025452 64.47173279 255.12025452 46.79173279 255.12025452 C44.80213721 244.5090781 43.13082292 233.83297561 41.79173279 223.12025452 C25.45673279 223.61525452 25.45673279 223.61525452 8.79173279 224.12025452 C7.14173279 234.35025452 5.49173279 244.58025452 3.79173279 255.12025452 C-13.36826721 255.12025452 -30.52826721 255.12025452 -48.20826721 255.12025452 C-47.61749086 249.21249095 -47.04490221 243.65811179 -45.99861145 237.87242126 C-45.88033926 237.21230675 -45.76206707 236.55219223 -45.64021087 235.87207425 C-45.24892706 233.69354141 -44.85215553 231.51604723 -44.45533752 229.33851624 C-44.17053402 227.75936296 -43.88607426 226.18014765 -43.60192871 224.60087585 C-42.82982923 220.31514371 -42.05293219 216.03029373 -41.27518177 211.74558401 C-40.44696846 207.17804254 -39.62325727 202.60968911 -38.79902649 198.04142761 C-37.22394908 189.31547612 -35.64491007 180.5902464 -34.06443191 171.86527169 C-32.14674954 161.27770077 -30.23411867 150.68921863 -28.32154846 140.10072327 C-26.27871299 128.79173831 -24.23495366 117.48292312 -22.18690491 106.17488098 C-21.51363588 102.45713717 -20.84041403 98.73938482 -20.16725159 95.0216217 C-20.00220281 94.110097 -19.83715403 93.1985723 -19.66710377 92.25942564 C-17.36562122 79.54615863 -15.07736397 66.83057616 -12.79973459 54.11301494 C-11.88568265 49.01118889 -10.96971127 43.90970701 -10.05380893 38.80821288 C-9.19806022 34.04008862 -8.34578408 29.27136039 -7.49610233 24.50215149 C-6.98000446 21.60990749 -6.46070227 18.71824595 -5.94046688 15.8267436 C-5.58718272 13.8572908 -5.2379478 11.887113 -4.88881683 9.91691971 C-4.57620533 8.18441782 -4.57620533 8.18441782 -4.25727844 6.41691589 C-4.07756878 5.41114565 -3.89785912 4.4053754 -3.7127037 3.36912727 C-2.99355306 0.16301844 -2.99355306 0.16301844 0 0 Z M24.79173279 97.12025452 C23.3559833 107.90736648 21.9216273 118.69466272 20.48906708 129.48219872 C19.82388141 134.49087449 19.15820963 139.49948467 18.49143982 144.50794983 C17.84840275 149.33828068 17.20662573 154.1687774 16.56573486 158.99939346 C16.32057896 160.84550102 16.07496335 162.69154759 15.82888794 164.53753281 C15.48522007 167.11621796 15.14316386 169.695112 14.80149841 172.27406311 C14.69864029 173.04298386 14.59578217 173.8119046 14.48980713 174.60412598 C13.97487669 178.34945658 13.97487669 178.34945658 13.79173279 182.12025452 C21.05173279 182.12025452 28.31173279 182.12025452 35.79173279 182.12025452 C35.20669337 171.14200336 34.18965015 160.35527665 32.72532654 149.46400452 C32.52450028 147.93993757 32.32415701 146.41580692 32.12426758 144.89161682 C31.60462522 140.93904842 31.07856345 136.98736211 30.55101013 133.0358429 C30.01071959 128.97987193 29.4767115 124.92307405 28.94212341 120.86634827 C27.8980284 112.95017626 26.84712834 105.03492782 25.79173279 97.12025452 C25.46173279 97.12025452 25.13173279 97.12025452 24.79173279 97.12025452 Z " fill="#006464" transform="translate(1478.208267211914,325.87974548339844)"/>
<path d="M0 0 C7.38728102 -0.02526692 14.77455098 -0.0428316 22.16186523 -0.05493164 C24.67716895 -0.05997363 27.19246972 -0.06680703 29.70776367 -0.07543945 C33.31429775 -0.08751094 36.92079323 -0.09322949 40.52734375 -0.09765625 C42.22575661 -0.10539818 42.22575661 -0.10539818 43.95848083 -0.11329651 C45.51998619 -0.11340981 45.51998619 -0.11340981 47.11303711 -0.11352539 C48.03459091 -0.115746 48.95614471 -0.11796661 49.90562439 -0.12025452 C52 0 52 0 53 1 C53.41225754 3.46927914 53.76696336 5.9255596 54.08813477 8.40722656 C54.24486774 9.57889704 54.24486774 9.57889704 54.40476704 10.77423763 C54.7543897 13.39584265 55.09789304 16.01821299 55.44140625 18.640625 C55.68707142 20.49266727 55.93310105 22.34466123 56.17947388 24.1966095 C56.70497396 28.1531326 57.22773651 32.11000444 57.74838257 36.06716919 C58.56002652 42.23603997 59.37797831 48.40406457 60.1965332 54.57202148 C62.56960448 72.46911736 64.92438648 90.36856226 67.24738503 108.27222824 C67.53368921 110.47813139 67.82044198 112.68397576 68.10734558 114.88980103 C68.28959571 116.291441 68.47183171 117.69308281 68.65405273 119.09472656 C68.74139773 119.76652891 68.82874273 120.43833126 68.91873455 121.13049126 C69.50975125 125.68105507 70.09358427 130.23251153 70.67602539 134.78417969 C70.97527859 137.09702392 71.27466708 139.40985066 71.57421875 141.72265625 C71.77182297 143.28787773 71.77182297 143.28787773 71.97341919 144.88471985 C72.09522552 145.8187413 72.21703186 146.75276276 72.3425293 147.71508789 C72.44623337 148.52506729 72.54993744 149.33504669 72.65678406 150.16957092 C72.82396098 152.01218743 72.82396098 152.01218743 74 153 C74.0900018 152.32083841 74.1800036 151.64167683 74.27273273 150.94193459 C76.47347212 134.33655646 78.67756506 117.73162715 80.88528919 101.12717628 C81.95289367 93.09704212 83.01940571 85.06676581 84.08325195 77.03613281 C85.01162898 70.02813543 85.94215155 63.02042668 86.87514132 56.01304185 C87.36804846 52.31042508 87.85995516 48.60768222 88.34928322 44.90459061 C88.81205227 41.40275277 89.27773841 37.90131402 89.74545097 34.40013313 C89.99376876 32.53596568 90.2391847 30.67141235 90.48443604 28.80683899 C91.77837427 19.15375069 93.39610798 9.62335214 95 0 C112.49 0 129.98 0 148 0 C140.16869874 44.24532849 132.03203504 88.42856213 123.81213903 132.60296631 C122.06587008 141.98811824 120.32222777 151.37375767 118.57863474 160.75940704 C112.74174339 192.17721643 106.89607383 223.59323538 101 255 C83.18 255 65.36 255 47 255 C45.5510589 249.92870613 44.34921994 245.01876421 43.40866089 239.85479736 C43.26150513 239.06244525 43.11434937 238.27009313 42.96273434 237.45373034 C42.47305828 234.81251452 41.98824358 232.17043044 41.50341797 229.52832031 C41.15186942 227.62658346 40.80001927 225.72490234 40.44789124 223.82327271 C39.49197898 218.65623415 38.54027269 213.48842874 37.58928823 208.3204813 C36.58521629 202.86820366 35.57720424 197.41665456 34.5696106 191.96502686 C32.65340943 181.59406625 30.74063947 171.22247594 28.82914078 160.85064769 C26.47483922 148.07699664 24.11641802 135.30410692 21.7578125 122.53125 C20.92006256 117.99437037 20.08234146 113.45748543 19.24465942 108.92059326 C19.0403654 107.81413979 18.83607138 106.70768632 18.62558663 105.56770396 C17.43759495 99.13298074 16.25031064 92.69812756 15.06380618 86.26312995 C14.50059458 83.20861496 13.93721246 80.15413145 13.37381172 77.09965134 C12.64853001 73.16740134 11.92399899 69.23501403 11.19993401 65.30253983 C9.37772416 55.4134804 7.53795793 45.52801746 5.67340088 35.64685059 C5.11233441 32.66471788 4.55155335 29.68253162 3.99083161 26.70033407 C3.46259071 23.89936961 2.92944269 21.09936871 2.39613152 18.299366 C2.07733314 16.60544548 1.75876294 14.91148199 1.44046021 13.21746826 C1.29345586 12.45432926 1.14645152 11.69119025 0.99499249 10.90492582 C0.30866527 7.224126 -0.16982869 3.74712583 0 0 Z " fill="#006464" transform="translate(1678,326)"/>
<path d="M0 0 C17.82 0 35.64 0 54 0 C61.49696091 37.97162017 68.83943162 75.96379346 76 114 C77.83202011 104.73620874 79.66156746 95.47193095 81.48957825 86.20734787 C81.93534174 83.94843698 82.38129896 81.6895644 82.82727051 79.43069458 C85.86837819 64.02379248 88.90040724 48.61567706 91.83203125 33.1875 C92.04242538 32.0810463 92.25281952 30.97459259 92.46958923 29.83460999 C93.44289214 24.70916656 94.41045257 19.58271089 95.37084961 14.45483398 C95.71070893 12.6560748 96.05062996 10.85732728 96.390625 9.05859375 C96.61628899 7.83843567 96.61628899 7.83843567 96.84651184 6.59362793 C97.88685608 1.11314392 97.88685608 1.11314392 99 0 C100.65738443 -0.09346915 102.31874644 -0.11744977 103.97875977 -0.11352539 C105.03978409 -0.11344986 106.10080841 -0.11337433 107.19398499 -0.11329651 C108.348134 -0.10813522 109.50228302 -0.10297394 110.69140625 -0.09765625 C111.86638168 -0.0962413 113.04135712 -0.09482635 114.25193787 -0.09336853 C118.02215064 -0.08774992 121.79230504 -0.07519426 125.5625 -0.0625 C128.11132727 -0.0574874 130.66015547 -0.05292408 133.20898438 -0.04882812 C139.47267633 -0.03777444 145.73633399 -0.02101821 152 0 C151.3229923 7.34834261 149.52030979 14.28861319 147.66015625 21.41796875 C147.3061441 22.78977794 146.952587 24.16170463 146.59944153 25.53373718 C145.83162385 28.51289384 145.0606729 31.49121572 144.28729248 34.46893311 C143.04429074 39.25490276 141.80803822 44.04259994 140.57275391 48.83056641 C138.98572065 54.97989925 137.39684953 61.12875261 135.80604553 67.27711105 C132.18875056 81.25863818 128.58712284 95.24418179 124.98828125 109.23046875 C124.69282221 110.37869047 124.39736317 111.52691219 124.09295082 112.70992851 C122.90435649 117.32915925 121.7157938 121.94839812 120.52732182 126.56766033 C118.47631613 134.53909542 116.42416617 142.51023526 114.37133789 150.48120117 C114.09387757 151.55861541 113.81641726 152.63602964 113.53054905 153.7460928 C111.39533296 162.03738547 111.39533296 162.03738547 110.34226418 166.12555504 C109.6276293 168.89991502 108.91316265 171.67431828 108.19873047 174.44873047 C107.98901643 175.26267367 107.77930239 176.07661688 107.56323338 176.91522503 C107.04109332 178.94321015 106.52044665 180.97157964 106 183 C105.81806186 183.67556883 105.63612371 184.35113766 105.44867229 185.04717827 C104.7857117 187.93267816 104.83301554 190.73880096 104.79467773 193.69628906 C104.78477814 194.36011597 104.77487854 195.02394287 104.76467896 195.70788574 C104.7331874 197.89376302 104.70835563 200.079662 104.68359375 202.265625 C104.66301355 203.78449049 104.64201679 205.30335038 104.62062073 206.82220459 C104.56551016 210.81371525 104.51605247 214.80527665 104.46777344 218.796875 C104.40863 223.58940158 104.3424628 228.38183571 104.27747345 233.17428589 C104.17960255 240.44946731 104.09065182 247.7247089 104 255 C85.85 255 67.7 255 49 255 C49.391875 246.29625 49.78375 237.5925 50.1875 228.625 C50.41767697 196.81520321 43.90698782 167.55394137 35.75 136.9375 C35.44994804 135.81112373 35.14989609 134.68474747 34.84075165 133.52423859 C31.50766409 121.05222427 28.08498433 108.60575171 24.62841797 96.16748047 C21.12825536 83.56418609 17.79790402 70.92052577 14.53515625 58.25390625 C14.28693745 57.29037672 14.03871864 56.32684719 13.78297806 55.3341198 C12.81595842 51.57764149 11.84992341 47.82091343 10.88596916 44.06364727 C9.3046763 37.90180792 7.70698837 31.74442726 6.09863281 25.58959961 C5.67774485 23.97668604 5.25688129 22.36376611 4.83604431 20.75083923 C4.2476033 18.49582054 3.65855799 16.24097152 3.06721687 13.9867115 C2.54239208 11.98519076 2.02048709 9.98293082 1.49926758 7.98046875 C1.20764236 6.86567139 0.91601715 5.75087402 0.61555481 4.60229492 C0 2 0 2 0 0 Z " fill="#006464" transform="translate(1296,326)"/>
<path d="M0 0 C0.93070312 0.30035156 1.86140625 0.60070312 2.8203125 0.91015625 C22.00216241 7.8553088 36.87562531 23.47908308 45.62255859 41.55297852 C53.67416803 59.13318952 55.40318781 80.98381793 49.390625 99.55078125 C44.99065655 110.46418615 40.00850894 120.24761769 32 129 C31.40960938 129.68191406 30.81921875 130.36382813 30.2109375 131.06640625 C18.22831248 144.09432409 -0.22480261 152.84395975 -17.80517578 154.21948242 C-20.76953538 154.33876701 -23.72077159 154.37977235 -26.6875 154.375 C-27.73752197 154.37338867 -28.78754395 154.37177734 -29.86938477 154.37011719 C-38.46546767 154.23538028 -45.89399937 153.00337716 -54 150 C-55.22976563 149.54947266 -55.22976563 149.54947266 -56.484375 149.08984375 C-58.73279986 148.16894633 -60.85074764 147.13296841 -63 146 C-63.93199219 145.51917969 -64.86398437 145.03835938 -65.82421875 144.54296875 C-84.19410655 134.49950897 -96.50227163 118.49318512 -103.0625 98.8125 C-109.1849931 77.14829363 -106.81078109 55.25349651 -96.08984375 35.54296875 C-93.48687294 30.9983094 -90.42398895 26.953892 -87 23 C-86.40316406 22.20722656 -85.80632812 21.41445313 -85.19140625 20.59765625 C-64.78682734 -3.58958969 -28.96068924 -9.48938684 0 0 Z " fill="#C12E2E" transform="translate(439,495)"/>
<path d="M0 0 C1.68963955 0.00747384 3.37928784 0.01316136 5.06893921 0.01715088 C9.48480779 0.03231742 13.90013793 0.07151991 18.3157959 0.1159668 C22.83415445 0.15711501 27.35260125 0.17520336 31.87109375 0.1953125 C40.71377635 0.23802442 49.5560619 0.30616475 58.3984375 0.390625 C59.54354496 6.42185421 60.68270655 12.45416485 61.81640625 18.48754883 C62.2027991 20.53928838 62.59080641 22.59072458 62.98046875 24.6418457 C63.54072398 27.59247562 64.09513781 30.54415267 64.6484375 33.49609375 C64.82342773 34.41085983 64.99841797 35.32562592 65.17871094 36.26811218 C65.33887695 37.12862686 65.49904297 37.98914154 65.6640625 38.87573242 C65.87724121 40.00491341 65.87724121 40.00491341 66.09472656 41.15690613 C66.42580429 43.591901 66.44923312 45.93617316 66.3984375 48.390625 C65.76172623 48.40093246 65.12501495 48.41123993 64.4690094 48.42185974 C57.86716952 48.52968831 51.26547272 48.64430461 44.66381836 48.76293945 C42.19705181 48.80636443 39.73025372 48.84803372 37.26342773 48.88793945 C33.72630284 48.94545945 30.18933784 49.00920575 26.65234375 49.07421875 C25.54194229 49.09093124 24.43154083 49.10764374 23.28749084 49.12486267 C22.26650803 49.14480789 21.24552521 49.16475311 20.19360352 49.18530273 C18.83792015 49.20861916 18.83792015 49.20861916 17.45484924 49.23240662 C15.40649649 49.16563957 15.40649649 49.16563957 14.3984375 50.390625 C14.30171055 52.39023955 14.2765672 54.39332693 14.27818298 56.39527893 C14.27680832 57.70084747 14.27543365 59.00641602 14.27401733 60.35154724 C14.27755695 61.81192039 14.28119177 63.27229331 14.28491211 64.73266602 C14.28519397 66.25988768 14.28503627 67.78710947 14.2844696 69.31433105 C14.28418159 73.47324188 14.29007895 77.63212411 14.29704356 81.79102826 C14.30327644 86.13257024 14.30388085 90.47411281 14.30506897 94.81565857 C14.30818248 103.04276082 14.31639613 111.26984986 14.32641846 119.49694628 C14.33757899 128.86075564 14.34308989 138.22456562 14.34811389 147.58837998 C14.35857873 166.85580249 14.37617855 186.12321269 14.3984375 205.390625 C16.8400992 206.61145585 18.48534556 206.54793243 21.21533203 206.59594727 C22.21621857 206.61589249 23.2171051 206.63583771 24.24832153 206.65638733 C25.33168793 206.67309982 26.41505432 206.68981232 27.53125 206.70703125 C28.63822235 206.72781235 29.7451947 206.74859344 30.88571167 206.77000427 C34.43155549 206.83553491 37.97747504 206.89440114 41.5234375 206.953125 C43.923185 206.99630687 46.32292477 207.03992105 48.72265625 207.08398438 C54.61450263 207.19121988 60.50642481 207.29297972 66.3984375 207.390625 C65.84926535 213.7314416 65.04367156 219.93008355 63.8046875 226.171875 C63.65310181 226.95203979 63.50151611 227.73220459 63.34533691 228.53601074 C63.02814746 230.16310693 62.70875613 231.78977538 62.38720703 233.41601562 C61.89428172 235.91166544 61.40955026 238.40881081 60.92578125 240.90625 C60.61506045 242.49488506 60.30387951 244.08343021 59.9921875 245.671875 C59.84736938 246.41763794 59.70255127 247.16340088 59.55334473 247.9317627 C58.51406409 253.15937181 58.51406409 253.15937181 57.3984375 255.390625 C49.03492834 255.46064109 40.67154497 255.51369479 32.30781364 255.54606152 C28.42271323 255.56160874 24.53781572 255.58264228 20.65283203 255.61694336 C16.892112 255.64993329 13.1315851 255.66755989 9.37073135 255.67525673 C7.94765311 255.68073016 6.52458346 255.69141434 5.1015892 255.70781517 C-7.6640645 255.84887454 -21.78001742 255.60486772 -31.6015625 246.390625 C-41.00083838 235.59447941 -40.04034009 220.98355622 -40.00561523 207.58984375 C-40.0113253 205.59623839 -40.01829201 203.6026363 -40.02641296 201.60903931 C-40.04428731 196.22064667 -40.04318699 190.83241739 -40.03747058 185.44400406 C-40.034371 180.93609168 -40.04047959 176.42821034 -40.04650933 171.92030239 C-40.06053361 161.28245376 -40.0590102 150.64468547 -40.04760742 140.00683594 C-40.03612296 129.05099888 -40.05021229 118.09540653 -40.0770039 107.13960171 C-40.09918761 97.7133662 -40.1057924 88.28720736 -40.09992748 78.86094761 C-40.09656377 73.23970741 -40.09893441 67.61862412 -40.11617851 61.99740601 C-40.13168856 56.71130434 -40.12764698 51.42556437 -40.10887337 46.13947678 C-40.10519901 44.2057947 -40.10826211 42.27208557 -40.11875916 40.3384285 C-40.18473316 27.17502931 -39.98032331 16.04426311 -30.1875 6.14453125 C-20.6798094 -0.30403836 -11.05129303 -0.14453231 0 0 Z " fill="#006464" transform="translate(2100.6015625,325.609375)"/>
<path d="M0 0 C31.35 0 62.7 0 95 0 C99.59708794 14.9405358 99.59708794 14.9405358 101.359375 21.92578125 C101.65053192 23.06348213 101.65053192 23.06348213 101.9475708 24.22416687 C102.55134754 26.58619974 103.15077196 28.94930959 103.75 31.3125 C104.16507295 32.93952755 104.58043576 34.56648119 104.99609375 36.19335938 C106.00126394 40.1279399 107.00050555 44.0639567 108 48 C96.78 48 85.56 48 74 48 C74 116.31 74 184.62 74 255 C56.51 255 39.02 255 21 255 C21 186.69 21 118.38 21 48 C9.78 48 -1.44 48 -13 48 C-11.87487507 40.12412546 -11.87487507 40.12412546 -10.89257812 36.65698242 C-10.67565308 35.8831572 -10.45872803 35.10933197 -10.23522949 34.3120575 C-10.00291626 33.50138321 -9.77060303 32.69070892 -9.53125 31.85546875 C-9.29088013 31.00447098 -9.05051025 30.15347321 -8.80285645 29.27668762 C-8.2973015 27.49024919 -7.7895754 25.70442389 -7.27978516 23.91918945 C-6.49784853 21.17996311 -5.72299544 18.43880691 -4.94921875 15.69726562 C-4.45614056 13.95821664 -3.96266505 12.21928024 -3.46875 10.48046875 C-3.23643677 9.65967331 -3.00412354 8.83887787 -2.76477051 7.99320984 C-1.11638104 2.23276207 -1.11638104 2.23276207 0 0 Z " fill="#006565" transform="translate(2559,326)"/>
<path d="M0 0 C17.82 0 35.64 0 54 0 C54 68.31 54 136.62 54 207 C70.83 207 87.66 207 105 207 C104.2575 211.393125 103.515 215.78625 102.75 220.3125 C102.52538086 221.65352783 102.30076172 222.99455566 102.06933594 224.3762207 C100.31158768 234.66667761 98.15602023 244.75890389 96 255 C64.32 255 32.64 255 0 255 C0 170.85 0 86.7 0 0 Z " fill="#006464" transform="translate(2456,326)"/>
<path d="M0 0 C17.49 0 34.98 0 53 0 C53 68.31 53 136.62 53 207 C69.83 207 86.66 207 104 207 C102.53144682 223.15408501 99.015293 239.06202274 96 255 C64.32 255 32.64 255 0 255 C0 170.85 0 86.7 0 0 Z " fill="#006464" transform="translate(1590,326)"/>
<path d="M0 0 C17.49 0 34.98 0 53 0 C53 68.31 53 136.62 53 207 C69.83 207 86.66 207 104 207 C102.53144682 223.15408501 99.015293 239.06202274 96 255 C64.32 255 32.64 255 0 255 C0 170.85 0 86.7 0 0 Z " fill="#006464" transform="translate(2337,326)"/>
<path d="M0 0 C17.16 0 34.32 0 52 0 C52 84.15 52 168.3 52 255 C34.84 255 17.68 255 0 255 C0 170.85 0 86.7 0 0 Z " fill="#006565" transform="translate(1839,326)"/>
<path d="M0 0 C16.83 0 33.66 0 51 0 C51 84.15 51 168.3 51 255 C34.17 255 17.34 255 0 255 C0 170.85 0 86.7 0 0 Z " fill="#006464" transform="translate(2949,326)"/>
<path d="M0 0 C27.00907885 27.45291868 40.63991952 63.78365 40.6237793 102.01660156 C40.23111953 136.22037485 27.74293426 168.06990641 5.375 193.8125 C4.84261719 194.46605469 4.31023437 195.11960937 3.76171875 195.79296875 C0.05047346 200.32448928 -4.12938032 204.07156016 -8.625 207.8125 C-9.31851563 208.41707031 -10.01203125 209.02164063 -10.7265625 209.64453125 C-39.35393376 233.79580151 -77.11067013 244.61938827 -114.21875 241.6015625 C-140.40737322 239.02946558 -165.73585107 230.02454553 -186.625 213.8125 C-187.5634375 213.09449219 -188.501875 212.37648438 -189.46875 211.63671875 C-217.68276183 189.32704367 -237.81347511 156.07511726 -242.3203125 120.06640625 C-246.15365704 79.12825236 -236.6783584 40.47554761 -210.25830078 8.34375 C-186.01080592 -20.29168583 -151.72853246 -38.03425699 -114.390625 -41.6171875 C-71.72172355 -45.12569314 -30.53655979 -29.9019983 0 0 Z M-196.66552734 15.05859375 C-219.30097501 41.09805495 -229.38387786 74.63100979 -227.625 108.8125 C-224.6295718 143.3235855 -207.9852612 174.88211842 -181.671875 197.33203125 C-154.35281741 219.59706318 -121.33861448 227.68568012 -86.625 225.8125 C-79.81235694 225.08545904 -73.22937585 223.60071553 -66.625 221.8125 C-64.73201172 221.32136719 -64.73201172 221.32136719 -62.80078125 220.8203125 C-33.9760072 212.281947 -8.40745979 192.27745046 7.375 166.8125 C7.97441406 165.90886719 8.57382812 165.00523437 9.19140625 164.07421875 C25.72818479 137.91873233 30.94777327 103.82550343 24.84960938 73.64331055 C24.39936211 71.6862587 23.90093547 69.75053619 23.375 67.8125 C23.09293701 66.75409912 23.09293701 66.75409912 22.80517578 65.67431641 C16.8715145 44.23855198 5.56637138 25.92376411 -9.625 9.8125 C-10.28757812 9.07386719 -10.95015625 8.33523438 -11.6328125 7.57421875 C-32.34151288 -14.59117728 -64.52440704 -27.29046179 -94.44921875 -28.46484375 C-133.83069872 -29.38973322 -170.06483258 -14.35480529 -196.66552734 15.05859375 Z " fill="#C12E2E" transform="translate(512.625,471.1875)"/>
</svg>
